<svg width="123" height="36" viewBox="0 0 123 36" fill="none" xmlns="http://www.w3.org/2000/svg">
<g clip-path="url(#clip0_119_275)">
<g clip-path="url(#clip1_119_275)">
<g clip-path="url(#clip2_119_275)">
<path d="M118.588 0.800049H3.80988C1.8877 0.800049 0.329468 2.35828 0.329468 4.28046V31.6953C0.329468 33.6175 1.8877 35.1757 3.80988 35.1757H118.588C120.51 35.1757 122.069 33.6175 122.069 31.6953V4.28046C122.069 2.35828 120.51 0.800049 118.588 0.800049Z" fill="#21201C"/>
<path d="M41.165 12.632C40.7666 12.632 40.389 12.5666 40.0323 12.4358C39.6756 12.305 39.3456 12.0939 39.0424 11.8026L39.6042 11.098C39.848 11.3239 40.0917 11.4874 40.3355 11.5885C40.5852 11.6837 40.8587 11.7312 41.1561 11.7312C41.4949 11.7312 41.7774 11.648 42.0033 11.4815C42.2352 11.315 42.3511 11.0772 42.3511 10.768C42.3511 10.4588 42.2382 10.2329 42.0122 10.0902C41.7922 9.9475 41.4682 9.87613 41.0401 9.87613H40.3177V9.1002H40.8617C41.2898 9.1002 41.596 9.0289 41.7803 8.88617C41.9706 8.7435 42.0658 8.53837 42.0658 8.27081C42.0658 8.00325 41.9706 7.80705 41.7803 7.68219C41.596 7.55138 41.3642 7.48598 41.0847 7.48598C40.835 7.48598 40.606 7.53057 40.3979 7.61976C40.1898 7.703 39.9906 7.82191 39.8004 7.9765L39.2742 7.28977C39.5061 7.06978 39.7796 6.89735 40.0947 6.77249C40.4158 6.64763 40.7547 6.58521 41.1114 6.58521C41.7238 6.58521 42.2025 6.72196 42.5473 6.99546C42.8981 7.26896 43.0735 7.64354 43.0735 8.11919C43.0735 8.41055 43.0051 8.67213 42.8684 8.90405C42.7317 9.12995 42.5325 9.29643 42.2708 9.40348V9.43917C42.586 9.51046 42.8475 9.66804 43.0556 9.91182C43.2637 10.1556 43.3678 10.4647 43.3678 10.8393C43.3678 11.2258 43.2697 11.5529 43.0735 11.8204C42.8773 12.088 42.6127 12.2901 42.2798 12.4269C41.9468 12.5636 41.5752 12.632 41.165 12.632ZM45.576 12.632C45.1954 12.632 44.8833 12.5131 44.6395 12.2752C44.4017 12.0374 44.2828 11.7282 44.2828 11.3477C44.2828 10.878 44.4879 10.5153 44.8982 10.2596C45.3084 9.99802 45.9625 9.81968 46.8603 9.72457C46.8544 9.49265 46.7919 9.29346 46.673 9.12698C46.56 8.95457 46.3548 8.86836 46.0576 8.86836C45.8435 8.86836 45.6325 8.90998 45.4244 8.99322C45.2222 9.07646 45.023 9.1775 44.8269 9.29643L44.4523 8.60974C44.696 8.45513 44.9695 8.32135 45.2727 8.20838C45.582 8.09541 45.909 8.03893 46.2538 8.03893C46.8008 8.03893 47.2081 8.20243 47.4757 8.52947C47.7491 8.85048 47.8859 9.31727 47.8859 9.92962V12.5249H47.0386L46.9673 12.0434H46.9316C46.7354 12.2099 46.5244 12.3496 46.2984 12.4626C46.0784 12.5755 45.8376 12.632 45.576 12.632ZM45.906 11.8293C46.0844 11.8293 46.2449 11.7877 46.3876 11.7044C46.5362 11.6153 46.6938 11.4963 46.8603 11.3477V10.3667C46.2657 10.444 45.8524 10.5599 45.6206 10.7145C45.3887 10.8631 45.2727 11.0474 45.2727 11.2675C45.2727 11.4637 45.3322 11.6064 45.4512 11.6955C45.5701 11.7847 45.7217 11.8293 45.906 11.8293ZM49.2917 12.5249V8.14595H52.1724V8.95754H50.3173V12.5249H49.2917ZM53.2326 14.2552V8.14595H54.0798L54.1512 8.60974H54.1869C54.3711 8.45513 54.5763 8.32135 54.8023 8.20838C55.0341 8.09541 55.269 8.03893 55.5068 8.03893C56.0538 8.03893 56.4759 8.24109 56.7732 8.64543C57.0765 9.04968 57.2281 9.59073 57.2281 10.2686C57.2281 10.768 57.1389 11.1961 56.9605 11.5529C56.7822 11.9036 56.5503 12.1712 56.2649 12.3555C55.9854 12.5398 55.6822 12.632 55.3552 12.632C55.165 12.632 54.9747 12.5904 54.7844 12.5071C54.5942 12.418 54.4098 12.299 54.2314 12.1504L54.2582 12.8817V14.2552H53.2326ZM55.1411 11.7847C55.4325 11.7847 55.6763 11.6569 55.8725 11.4012C56.0686 11.1456 56.1668 10.771 56.1668 10.2775C56.1668 9.83748 56.0925 9.49562 55.9438 9.25184C55.7952 9.00806 55.5544 8.88617 55.2214 8.88617C54.9122 8.88617 54.5912 9.04968 54.2582 9.3767V11.419C54.4188 11.5499 54.5733 11.645 54.722 11.7044C54.8706 11.758 55.0103 11.7847 55.1411 11.7847ZM58.6871 14.3265C58.5682 14.3265 58.4642 14.3176 58.3749 14.2998C58.2857 14.2819 58.1995 14.2611 58.1163 14.2373L58.3036 13.4346C58.3452 13.4465 58.3928 13.4585 58.4463 13.4703C58.5058 13.4881 58.5622 13.4971 58.6157 13.4971C58.8476 13.4971 59.0319 13.4257 59.1687 13.283C59.3114 13.1463 59.4184 12.9679 59.4897 12.748L59.57 12.4715L57.8488 8.14595H58.8922L59.6503 10.2953C59.7157 10.4856 59.7781 10.6878 59.8376 10.9018C59.903 11.1099 59.9684 11.318 60.0338 11.5261H60.0694C60.123 11.3239 60.1765 11.1188 60.23 10.9107C60.2895 10.6967 60.3459 10.4915 60.3994 10.2953L61.0594 8.14595H62.0494L60.4619 12.7212C60.2775 13.2147 60.0546 13.6041 59.793 13.8895C59.5314 14.1808 59.1627 14.3265 58.6871 14.3265ZM64.1586 12.632C63.8612 12.632 63.5759 12.5963 63.3024 12.5249C63.0288 12.4476 62.7554 12.305 62.4819 12.0969L62.901 11.4369C63.0913 11.5855 63.2875 11.6896 63.4896 11.749C63.6918 11.8085 63.8851 11.8383 64.0693 11.8383C64.331 11.8383 64.5539 11.7817 64.7383 11.6687C64.9226 11.5558 65.0147 11.3983 65.0147 11.1961C65.0147 10.8096 64.7174 10.6164 64.1229 10.6164H63.4718V9.92072H64.0337C64.3131 9.92072 64.5212 9.87317 64.658 9.77806C64.7948 9.67694 64.8632 9.54021 64.8632 9.3678C64.8632 9.18945 64.7918 9.05561 64.649 8.96644C64.5123 8.87726 64.3251 8.83268 64.0872 8.83268C63.8673 8.83268 63.6681 8.85946 63.4896 8.91295C63.3172 8.96644 63.1448 9.05264 62.9724 9.17157L62.571 8.50269C62.797 8.3481 63.0378 8.23216 63.2935 8.15487C63.5551 8.07757 63.8405 8.03893 64.1496 8.03893C64.4529 8.03893 64.7323 8.08352 64.988 8.17271C65.2496 8.25594 65.4577 8.38675 65.6123 8.56515C65.7728 8.7435 65.8531 8.97237 65.8531 9.25184C65.8531 9.44807 65.7936 9.63532 65.6747 9.81374C65.5558 9.98615 65.3774 10.114 65.1396 10.1972V10.2329C65.4012 10.2983 65.6153 10.4172 65.7817 10.5896C65.9482 10.7561 66.0315 10.991 66.0315 11.2942C66.0315 11.5796 65.9423 11.8234 65.7639 12.0255C65.5855 12.2217 65.3536 12.3733 65.0683 12.4804C64.7829 12.5814 64.4796 12.632 64.1586 12.632ZM67.1803 12.5249V8.14595H68.1793V9.6532C68.1793 9.8791 68.1673 10.1318 68.1436 10.4113C68.1257 10.6848 68.1079 10.9612 68.09 11.2407H68.1168C68.1941 11.1039 68.2862 10.9493 68.3933 10.7769C68.5003 10.5986 68.5894 10.444 68.6608 10.3132L70.0521 8.14595H70.9975V12.5249H69.9986V11.0177C69.9986 10.7918 70.0075 10.5391 70.0253 10.2596C70.0492 9.98022 70.0729 9.70372 70.0967 9.43019H70.061C69.9837 9.56106 69.8916 9.71559 69.7845 9.89401C69.6835 10.0724 69.5943 10.227 69.517 10.3578L68.1257 12.5249H67.1803ZM73.4342 12.5249V8.95754H72.0608V8.14595H75.8422V8.95754H74.4688V12.5249H73.4342ZM78.6332 12.632C78.2292 12.632 77.8632 12.5428 77.536 12.3644C77.2096 12.1801 76.9509 11.9185 76.7607 11.5796C76.5705 11.2347 76.4754 10.8215 76.4754 10.3399C76.4754 9.86426 76.5705 9.454 76.7607 9.10918C76.957 8.76427 77.2096 8.49972 77.5185 8.3154C77.8275 8.13109 78.1516 8.03893 78.4909 8.03893C78.8889 8.03893 79.2221 8.12811 79.4892 8.30648C79.757 8.47887 79.9594 8.72266 80.0964 9.03781C80.2326 9.34695 80.301 9.70669 80.301 10.1169C80.301 10.331 80.2866 10.4975 80.2569 10.6164H77.4737C77.5216 11.0028 77.6616 11.3031 77.8929 11.5172C78.125 11.7312 78.4164 11.8383 78.7671 11.8383C78.9573 11.8383 79.1331 11.8115 79.2937 11.758C79.4595 11.6985 79.6231 11.6182 79.7837 11.5172L80.1314 12.1593C79.9237 12.2961 79.6916 12.409 79.4359 12.4982C79.1803 12.5874 78.9125 12.632 78.6332 12.632ZM77.4653 9.92072H79.4093C79.4093 9.58183 79.3347 9.31727 79.1864 9.12698C79.038 8.93075 78.8151 8.83268 78.5176 8.83268C78.2619 8.83268 78.0329 8.92779 77.8305 9.11808C77.6342 9.30236 77.5125 9.56996 77.4653 9.92072ZM83.4229 12.5249V8.14595H85.198C85.5244 8.14595 85.8128 8.18162 86.0631 8.25297C86.3188 8.32432 86.5204 8.44326 86.6695 8.60974C86.8179 8.77622 86.8925 8.99916 86.8925 9.27862C86.8925 9.49266 86.8301 9.68295 86.7053 9.84943C86.5858 10.0099 86.4047 10.1259 86.1613 10.1972V10.2329C86.4222 10.2923 86.6399 10.4053 86.8118 10.5718C86.9845 10.7323 87.0705 10.9642 87.0705 11.2675C87.0705 11.5588 86.9906 11.7996 86.8301 11.9898C86.6748 12.1742 86.4641 12.3109 86.1963 12.4001C85.9292 12.4833 85.6256 12.5249 85.287 12.5249H83.4229ZM84.431 9.92072H85.0998C85.3852 9.92072 85.5898 9.87317 85.7146 9.77806C85.8402 9.68295 85.9026 9.55208 85.9026 9.3856C85.9026 9.21319 85.8425 9.07943 85.7238 8.98432C85.6051 8.88913 85.4057 8.84158 85.1265 8.84158H84.431V9.92072ZM84.431 11.8293H85.2155C85.513 11.8293 85.7268 11.7728 85.8577 11.6598C85.9946 11.5469 86.0631 11.3953 86.0631 11.205C86.0631 11.0266 85.9885 10.884 85.8402 10.7769C85.6971 10.6699 85.4772 10.6164 85.1797 10.6164H84.431V11.8293Z" fill="white"/>
<path d="M27.093 17.794C27.0666 14.9023 29.5051 13.4954 29.6167 13.4299C28.2356 11.4533 26.0949 11.1833 25.3427 11.1618C23.5448 10.976 21.8009 12.2178 20.885 12.2178C19.9508 12.2178 18.5406 11.1797 17.0205 11.2101C15.0645 11.2398 13.2346 12.3515 12.2311 14.0777C10.1598 17.5976 11.7045 22.77 13.6889 25.6152C14.6815 27.0085 15.8415 28.5644 17.3596 28.5096C18.8449 28.4495 19.3997 27.5801 21.1921 27.5801C22.9681 27.5801 23.489 28.5096 25.0374 28.4746C26.6315 28.4495 27.6351 27.075 28.5929 25.669C29.74 24.072 30.2007 22.4991 30.219 22.4184C30.1816 22.4058 27.1232 21.26 27.093 17.794Z" fill="white"/>
<path d="M24.1663 9.29037C24.9651 8.30967 25.5116 6.9755 25.3599 5.62158C24.2037 5.67183 22.7577 6.40665 21.9251 7.36579C21.1884 8.21098 20.5302 9.59631 20.7003 10.8991C21.9991 10.9942 23.3327 10.2558 24.1663 9.29037Z" fill="white"/>
<path d="M48.5907 28.3097H46.515L45.378 24.8025H41.4257L40.3426 28.3097H38.3217L42.2373 16.3694H44.6559L48.5907 28.3097ZM45.0352 23.331L44.0069 20.2131C43.8981 19.8946 43.6943 19.1445 43.3936 17.9638H43.357C43.2373 18.4716 43.0444 19.2217 42.7794 20.2131L41.7694 23.331H45.0352Z" fill="white"/>
<path d="M58.661 23.899C58.661 25.3632 58.2579 26.5206 57.4517 27.3703C56.7296 28.1266 55.833 28.5044 54.7627 28.5044C53.6073 28.5044 52.7774 28.0971 52.2719 27.2824H52.2354V31.8179H50.2867V22.5343C50.2867 21.6137 50.262 20.6689 50.2145 19.6999H51.9283L52.0371 21.0646H52.0736C52.7234 20.0364 53.7097 19.5232 55.0332 19.5232C56.0679 19.5232 56.9317 19.9242 57.6227 20.7273C58.3155 21.5311 58.661 22.5881 58.661 23.899ZM56.6757 23.969C56.6757 23.1309 56.4838 22.4401 56.0981 21.8963C55.6767 21.3293 55.1109 21.0458 54.4016 21.0458C53.9208 21.0458 53.4839 21.2036 53.0937 21.515C52.7024 21.829 52.4466 22.239 52.3268 22.7469C52.2665 22.9838 52.2363 23.1776 52.2363 23.3301V24.7657C52.2363 25.3919 52.4319 25.9204 52.8231 26.3519C53.2143 26.7835 53.7225 26.9989 54.3477 26.9989C55.0817 26.9989 55.6529 26.7207 56.0615 26.1662C56.471 25.6108 56.6757 24.8787 56.6757 23.969Z" fill="white"/>
<path d="M68.7497 23.8992C68.7497 25.3635 68.3465 26.5209 67.5395 27.3706C66.8183 28.1269 65.9217 28.5047 64.8513 28.5047C63.696 28.5047 62.8661 28.0973 62.3615 27.2826H62.3249V31.8181H60.3763V22.5345C60.3763 21.6139 60.3516 20.6692 60.3041 19.7002H62.0179L62.1266 21.0649H62.1632C62.8121 20.0366 63.7984 19.5234 65.1228 19.5234C66.1565 19.5234 67.0203 19.9245 67.7131 20.7275C68.4032 21.5314 68.7497 22.5884 68.7497 23.8992ZM66.7644 23.9692C66.7644 23.1312 66.5715 22.4403 66.1858 21.8966C65.7645 21.3295 65.2005 21.046 64.4903 21.046C64.0086 21.046 63.5726 21.2039 63.1814 21.5152C62.7902 21.8293 62.5352 22.2393 62.4154 22.7472C62.3561 22.984 62.3249 23.1778 62.3249 23.3304V24.7659C62.3249 25.3922 62.5206 25.9206 62.9099 26.3522C63.3011 26.7829 63.8093 26.9991 64.4364 26.9991C65.1703 26.9991 65.7416 26.721 66.1501 26.1664C66.5596 25.6111 66.7644 24.879 66.7644 23.9692Z" fill="white"/>
<path d="M80.0282 24.9612C80.0282 25.9768 79.6691 26.8031 78.9478 27.4411C78.1549 28.1382 77.0517 28.4863 75.6342 28.4863C74.3254 28.4863 73.2761 28.2387 72.4818 27.7426L72.9333 26.1482C73.7888 26.656 74.7276 26.9108 75.7504 26.9108C76.4841 26.9108 77.0555 26.7475 77.4663 26.4227C77.8742 26.098 78.0781 25.6619 78.0781 25.1182C78.0781 24.6337 77.9099 24.2254 77.5729 23.8943C77.2373 23.5633 76.6773 23.2555 75.8948 22.9711C73.7651 22.1914 72.7012 21.0492 72.7012 19.5473C72.7012 18.5657 73.0741 17.7609 73.8209 17.1346C74.5648 16.5075 75.5575 16.1943 76.7991 16.1943C77.9054 16.1943 78.8253 16.3836 79.5587 16.7614L79.0718 18.3208C78.3862 17.9547 77.6117 17.7717 76.7435 17.7717C76.0584 17.7717 75.5228 17.9376 75.1388 18.2679C74.8144 18.563 74.6517 18.9228 74.6517 19.349C74.6517 19.8209 74.8372 20.2113 75.2101 20.5181C75.5346 20.8016 76.1242 21.1085 76.9794 21.4395C78.0263 21.8532 78.7948 22.3368 79.2894 22.8913C79.7824 23.444 80.0282 24.1357 80.0282 24.9612Z" fill="white"/>
<path d="M86.4721 21.1355H84.3241V25.3156C84.3241 26.3789 84.7023 26.91 85.4609 26.91C85.8094 26.91 86.0977 26.8804 86.3267 26.8212L86.3808 28.2738C85.9965 28.4147 85.4913 28.4856 84.8651 28.4856C84.0951 28.4856 83.494 28.2549 83.0596 27.7947C82.6274 27.3335 82.4098 26.5601 82.4098 25.4736V21.1337H81.13V19.6981H82.4098V18.1217L84.3241 17.5547V19.6981H86.4721V21.1355Z" fill="white"/>
<path d="M96.1625 23.934C96.1625 25.2575 95.7767 26.344 95.0075 27.1937C94.2002 28.0684 93.1289 28.5045 91.7936 28.5045C90.5062 28.5045 89.4821 28.0855 88.7182 27.2475C87.9535 26.4095 87.5715 25.3517 87.5715 24.0767C87.5715 22.7425 87.9649 21.6497 88.7532 20.8C89.5407 19.9494 90.6028 19.5242 91.9382 19.5242C93.2248 19.5242 94.2603 19.9432 95.0417 20.782C95.7897 21.5959 96.1625 22.6465 96.1625 23.934ZM94.1409 23.996C94.1409 23.2019 93.9682 22.5209 93.6182 21.9529C93.2096 21.2656 92.6252 20.923 91.8682 20.923C91.0852 20.923 90.4902 21.2666 90.0816 21.9529C89.7316 22.5218 89.5589 23.2136 89.5589 24.0318C89.5589 24.8259 89.7316 25.5069 90.0816 26.0739C90.5032 26.7612 91.0913 27.104 91.8514 27.104C92.5948 27.104 93.1791 26.754 93.6007 26.056C93.9598 25.4773 94.1409 24.7891 94.1409 23.996Z" fill="white"/>
<path d="M102.496 21.3825C102.304 21.3475 102.098 21.3295 101.882 21.3295C101.197 21.3295 100.666 21.5834 100.294 22.0921C99.9695 22.5408 99.8067 23.1078 99.8067 23.7924V28.31H97.8589L97.8771 22.4115C97.8771 21.4192 97.852 20.5158 97.8041 19.701H99.5016L99.5723 21.3484H99.6264C99.8318 20.7822 100.157 20.3265 100.601 19.9846C101.035 19.6768 101.504 19.5234 102.009 19.5234C102.19 19.5234 102.352 19.536 102.496 19.5584V21.3825Z" fill="white"/>
<path d="M111.212 23.5978C111.212 23.9405 111.19 24.2294 111.141 24.4654H105.295C105.318 25.316 105.6 25.9664 106.143 26.415C106.636 26.8161 107.273 27.0171 108.056 27.0171C108.921 27.0171 109.711 26.8816 110.42 26.6097L110.726 27.9377C109.896 28.2929 108.916 28.4697 107.786 28.4697C106.426 28.4697 105.358 28.0767 104.581 27.2916C103.806 26.5066 103.417 25.4523 103.417 24.1298C103.417 22.8316 103.779 21.7504 104.502 20.8882C105.259 19.9676 106.281 19.5073 107.568 19.5073C108.832 19.5073 109.789 19.9676 110.439 20.8882C110.954 21.6194 111.212 22.5238 111.212 23.5978ZM109.354 23.1016C109.367 22.5345 109.24 22.0447 108.976 21.6311C108.638 21.099 108.12 20.8334 107.423 20.8334C106.786 20.8334 106.268 21.0927 105.872 21.6131C105.547 22.0267 105.355 22.5229 105.295 23.1007H109.354V23.1016Z" fill="white"/>
</g>
</g>
</g>
<defs>
<clipPath id="clip0_119_275">
<rect width="121.73" height="35" fill="white" transform="translate(0.333374 0.800049)"/>
</clipPath>
<clipPath id="clip1_119_275">
<rect width="121.73" height="35" fill="white" transform="translate(0.333374 0.800049)"/>
</clipPath>
<clipPath id="clip2_119_275">
<rect width="121.739" height="35" fill="white" transform="translate(0.329468 0.800049)"/>
</clipPath>
</defs>
</svg>
