<svg width="20" height="19" viewBox="0 0 20 19" fill="none" xmlns="http://www.w3.org/2000/svg">
<rect x="0.81665" width="18.7601" height="18.7601" rx="9.38005" fill="#FFC32A"/>
<path d="M9.67562 11.9857H10.7179V8.85897H9.67562V11.9857ZM10.1967 7.81674C10.3444 7.81674 10.4682 7.76672 10.5683 7.66666C10.6683 7.56661 10.7182 7.44293 10.7179 7.29563C10.7175 7.14833 10.6675 7.02465 10.5678 6.9246C10.4681 6.82454 10.3444 6.77452 10.1967 6.77452C10.0491 6.77452 9.92541 6.82454 9.8257 6.9246C9.726 7.02465 9.67597 7.14833 9.67562 7.29563C9.67528 7.44293 9.7253 7.56678 9.8257 7.66718C9.92611 7.76759 10.0498 7.81744 10.1967 7.81674ZM10.1967 14.5912C9.47586 14.5912 8.79842 14.4543 8.16439 14.1806C7.53037 13.9068 6.97886 13.5356 6.50986 13.067C6.04085 12.5983 5.66965 12.0468 5.39623 11.4124C5.12282 10.7781 4.98594 10.1006 4.9856 9.38009C4.98525 8.65956 5.12213 7.98211 5.39623 7.34774C5.67034 6.71337 6.04155 6.16186 6.50986 5.6932C6.97816 5.22455 7.52968 4.85334 8.16439 4.57958C8.79911 4.30582 9.47656 4.16895 10.1967 4.16895C10.9169 4.16895 11.5944 4.30582 12.2291 4.57958C12.8638 4.85334 13.4153 5.22455 13.8836 5.6932C14.3519 6.16186 14.7233 6.71337 14.9978 7.34774C15.2722 7.98211 15.4089 8.65956 15.4079 9.38009C15.4068 10.1006 15.27 10.7781 14.9972 11.4124C14.7245 12.0468 14.3533 12.5983 13.8836 13.067C13.4139 13.5356 12.8624 13.907 12.2291 14.1811C11.5958 14.4552 10.9183 14.5919 10.1967 14.5912ZM10.1967 13.549C11.3606 13.549 12.3463 13.1451 13.1541 12.3374C13.9618 11.5297 14.3657 10.5439 14.3657 9.38009C14.3657 8.21626 13.9618 7.23049 13.1541 6.42276C12.3463 5.61504 11.3606 5.21117 10.1967 5.21117C9.03292 5.21117 8.04714 5.61504 7.23942 6.42276C6.43169 7.23049 6.02782 8.21626 6.02782 9.38009C6.02782 10.5439 6.43169 11.5297 7.23942 12.3374C8.04714 13.1451 9.03292 13.549 10.1967 13.549Z" fill="#F5F5F6"/>
</svg>
