<svg width="21" height="21" viewBox="0 0 21 21" fill="none" xmlns="http://www.w3.org/2000/svg">
<g opacity="0.9">
<path d="M17.15 5.43193L16.7227 5.85928C16.5051 6.07684 16.21 6.19906 15.9023 6.19906C15.5947 6.19906 15.2996 6.07684 15.082 5.85928C14.8645 5.64172 14.7422 5.34664 14.7422 5.03896C14.7422 4.73129 14.8645 4.43621 15.082 4.21865L15.5094 3.79131L12.7859 1.06787L9.34844 4.50537L9.19219 4.97764L8.71992 5.13389L1.125 12.7288L3.85 15.4538L4.27734 15.0265C4.4949 14.8089 4.78998 14.6867 5.09766 14.6867C5.40533 14.6867 5.70041 14.8089 5.91797 15.0265C6.13553 15.244 6.25775 15.5391 6.25775 15.8468C6.25775 16.1545 6.13553 16.4495 5.91797 16.6671L5.49062 17.0944L8.21406 19.8179L15.8078 12.2241L15.9641 11.7519L16.4363 11.5956L19.8738 8.15811L17.15 5.43193ZM9.00312 5.64404L9.85742 4.78975L11.1465 6.07881L10.2918 6.93311L9.00312 5.64404ZM10.6828 7.32373L11.5375 6.46904L12.8078 7.73936L11.9531 8.59404L10.6828 7.32373ZM12.3453 8.98623L13.2 8.13154L14.4703 9.40186L13.6172 10.2585L12.3453 8.98623ZM15.2973 11.9378L14.0082 10.6487L14.8625 9.79404L16.1516 11.0831L15.2973 11.9378Z" fill="white"/>
</g>
</svg>
