<svg width="37" height="32" viewBox="0 0 37 32" fill="none" xmlns="http://www.w3.org/2000/svg">
<path d="M10.1251 8.6875C10.1251 8.53832 10.1844 8.39524 10.2899 8.28975C10.3954 8.18426 10.5384 8.125 10.6876 8.125H12.3751C12.5006 8.12503 12.6225 8.16702 12.7213 8.24428C12.8202 8.32154 12.8904 8.42963 12.9207 8.55137L13.3764 10.375H26.4376C26.5231 10.375 26.6074 10.3945 26.6842 10.432C26.761 10.4695 26.8282 10.5239 26.8808 10.5913C26.9334 10.6586 26.9699 10.737 26.9877 10.8206C27.0054 10.9042 27.0039 10.9907 26.9832 11.0736L25.2957 17.8236C25.2654 17.9454 25.1952 18.0535 25.0963 18.1307C24.9975 18.208 24.8756 18.25 24.7501 18.25H14.6251C14.4996 18.25 14.3778 18.208 14.2789 18.1307C14.1801 18.0535 14.1099 17.9454 14.0795 17.8236L11.9364 9.25H10.6876C10.5384 9.25 10.3954 9.19074 10.2899 9.08525C10.1844 8.97976 10.1251 8.83668 10.1251 8.6875ZM13.6576 11.5L15.0639 17.125H24.3114L25.7176 11.5H13.6576ZM15.7501 20.5C15.4518 20.5 15.1656 20.6185 14.9546 20.8295C14.7436 21.0405 14.6251 21.3266 14.6251 21.625C14.6251 21.9234 14.7436 22.2095 14.9546 22.4205C15.1656 22.6315 15.4518 22.75 15.7501 22.75C16.0485 22.75 16.3346 22.6315 16.5456 22.4205C16.7566 22.2095 16.8751 21.9234 16.8751 21.625C16.8751 21.3266 16.7566 21.0405 16.5456 20.8295C16.3346 20.6185 16.0485 20.5 15.7501 20.5ZM13.5001 21.625C13.5001 21.0283 13.7372 20.456 14.1591 20.034C14.5811 19.6121 15.1534 19.375 15.7501 19.375C16.3469 19.375 16.9192 19.6121 17.3411 20.034C17.7631 20.456 18.0001 21.0283 18.0001 21.625C18.0001 22.2217 17.7631 22.794 17.3411 23.216C16.9192 23.6379 16.3469 23.875 15.7501 23.875C15.1534 23.875 14.5811 23.6379 14.1591 23.216C13.7372 22.794 13.5001 22.2217 13.5001 21.625ZM23.6251 20.5C23.3268 20.5 23.0406 20.6185 22.8296 20.8295C22.6186 21.0405 22.5001 21.3266 22.5001 21.625C22.5001 21.9234 22.6186 22.2095 22.8296 22.4205C23.0406 22.6315 23.3268 22.75 23.6251 22.75C23.9235 22.75 24.2096 22.6315 24.4206 22.4205C24.6316 22.2095 24.7501 21.9234 24.7501 21.625C24.7501 21.3266 24.6316 21.0405 24.4206 20.8295C24.2096 20.6185 23.9235 20.5 23.6251 20.5ZM21.3751 21.625C21.3751 21.0283 21.6122 20.456 22.0341 20.034C22.4561 19.6121 23.0284 19.375 23.6251 19.375C24.2219 19.375 24.7942 19.6121 25.2161 20.034C25.6381 20.456 25.8751 21.0283 25.8751 21.625C25.8751 22.2217 25.6381 22.794 25.2161 23.216C24.7942 23.6379 24.2219 23.875 23.6251 23.875C23.0284 23.875 22.4561 23.6379 22.0341 23.216C21.6122 22.794 21.3751 22.2217 21.3751 21.625Z" fill="#CE2C31"/>
</svg>
