<svg width="123" height="36" viewBox="0 0 123 36" fill="none" xmlns="http://www.w3.org/2000/svg">
<g clip-path="url(#clip0_119_268)">
<g clip-path="url(#clip1_119_268)">
<g clip-path="url(#clip2_119_268)">
<path d="M118.585 0.800049H3.81257C1.88891 0.800049 0.329468 2.35949 0.329468 4.28315V31.9039C0.329468 33.8275 1.88891 35.387 3.81257 35.387H118.585C120.509 35.387 122.069 33.8275 122.069 31.9039V4.28315C122.069 2.35949 120.509 0.800049 118.585 0.800049Z" fill="#21201C"/>
<path d="M62.0225 20.8812C59.9032 20.8812 58.1722 22.4829 58.1722 24.6775C58.1722 26.8617 59.9032 28.4738 62.0225 28.4738C64.1417 28.4738 65.8728 26.8617 65.8728 24.6775C65.8728 22.4829 64.1417 20.8812 62.0225 20.8812ZM62.0225 26.9865C60.8579 26.9865 59.8613 26.04 59.8613 24.6775C59.8613 23.3045 60.8684 22.3684 62.0225 22.3684C63.1765 22.3684 64.1836 23.3045 64.1836 24.6775C64.1941 26.04 63.187 26.9865 62.0225 26.9865ZM53.6295 20.8812C51.5103 20.8812 49.7792 22.4829 49.7792 24.6775C49.7792 26.8617 51.5103 28.4738 53.6295 28.4738C55.7487 28.4738 57.4798 26.8617 57.4798 24.6775C57.4798 22.4829 55.7487 20.8812 53.6295 20.8812ZM53.6295 26.9865C52.465 26.9865 51.4684 26.04 51.4684 24.6775C51.4684 23.3045 52.4755 22.3684 53.6295 22.3684C54.794 22.3684 55.7907 23.3045 55.7907 24.6775C55.7907 26.04 54.794 26.9865 53.6295 26.9865ZM43.6419 22.0461V23.6582H47.5341C47.4187 24.5631 47.1145 25.2287 46.6529 25.6864C46.0863 26.248 45.2051 26.8721 43.6419 26.8721C41.25 26.8721 39.372 24.9583 39.372 22.5765C39.372 20.1947 41.25 18.2809 43.6419 18.2809C44.9323 18.2809 45.8765 18.7802 46.5795 19.4354L47.723 18.3018C46.7473 17.376 45.4569 16.6792 43.6419 16.6792C40.3581 16.6792 37.599 19.3314 37.599 22.5869C37.599 25.8424 40.3581 28.4947 43.6419 28.4947C45.4149 28.4947 46.7473 27.9226 47.7964 26.8409C48.8665 25.78 49.2023 24.2823 49.2023 23.0653C49.2023 22.6909 49.1708 22.3477 49.1183 22.0565H43.6419V22.0461ZM84.4839 23.3045C84.1696 22.4517 83.1934 20.8812 81.2007 20.8812C79.2278 20.8812 77.5812 22.4205 77.5812 24.6775C77.5812 26.8096 79.2072 28.4738 81.3894 28.4738C83.1516 28.4738 84.159 27.4129 84.5889 26.7889L83.2779 25.9256C82.8373 26.5601 82.2492 26.9761 81.3894 26.9761C80.5289 26.9761 79.9202 26.5913 79.5321 25.8216L84.6627 23.7206L84.4839 23.3045ZM79.2597 24.5734C79.2179 23.1069 80.4033 22.3581 81.2631 22.3581C81.9349 22.3581 82.501 22.6909 82.6897 23.1693L79.2597 24.5734ZM75.0945 28.2554H76.7839V17.0848H75.0945V28.2554ZM72.3353 21.734H72.2724C71.8947 21.2868 71.1708 20.8812 70.258 20.8812C68.3381 20.8812 66.5862 22.5557 66.5862 24.6983C66.5862 26.8305 68.3486 28.4842 70.258 28.4842C71.1708 28.4842 71.8947 28.0786 72.2724 27.621H72.3353V28.1722C72.3353 29.6284 71.5485 30.4084 70.2895 30.4084C69.2614 30.4084 68.6214 29.6699 68.3591 29.0563L66.8904 29.6596C67.31 30.6684 68.4326 31.9061 70.2895 31.9061C72.2619 31.9061 73.9404 30.7516 73.9404 27.9434V21.1204H72.3458V21.734H72.3353ZM70.405 26.9865C69.2404 26.9865 68.2647 26.0192 68.2647 24.6983C68.2647 23.3566 69.2404 22.3789 70.405 22.3789C71.5485 22.3789 72.4507 23.3566 72.4507 24.6983C72.4507 26.0192 71.5485 26.9865 70.405 26.9865ZM92.384 17.0848H88.3552V28.2554H90.0336V24.0222H92.384C94.2511 24.0222 96.0765 22.6805 96.0765 20.5483C96.0765 18.4161 94.2412 17.0848 92.384 17.0848ZM92.4258 22.4725H90.0336V18.645H92.4258C93.6851 18.645 94.398 19.6747 94.398 20.5587C94.398 21.422 93.6851 22.4725 92.4258 22.4725ZM102.822 20.8603C101.606 20.8603 100.346 21.3908 99.8222 22.5661L101.312 23.1798C101.627 22.5661 102.225 22.3581 102.854 22.3581C103.725 22.3581 104.606 22.8782 104.627 23.7934V23.9078C104.323 23.731 103.672 23.4814 102.875 23.4814C101.27 23.4814 99.6229 24.3551 99.6229 25.9984C99.6229 27.4962 100.945 28.453 102.424 28.453C103.557 28.453 104.176 27.9538 104.575 27.3609H104.638V28.2242H106.264V23.939C106.242 21.9733 104.753 20.8603 102.822 20.8603ZM102.613 26.9865C102.057 26.9865 101.291 26.7161 101.291 26.04C101.291 25.1767 102.246 24.8439 103.074 24.8439C103.809 24.8439 104.165 24.9999 104.616 25.2184C104.491 26.2585 103.589 26.9865 102.613 26.9865ZM112.16 21.11L110.229 25.9568H110.166L108.163 21.11H106.347L109.348 27.8809L107.638 31.6461H109.39L114.017 21.11H112.16ZM97.0108 28.2554H98.6893V17.0848H97.0108V28.2554Z" fill="white"/>
<path d="M40.5685 9.75561C40.4078 10.6125 40.1995 11.2491 39.9437 11.6657H42.3179V7.57782H40.9434C40.8957 7.85749 40.8511 8.11038 40.8094 8.33648C40.7738 8.55663 40.7381 8.77683 40.7024 8.99695C40.6666 9.21714 40.622 9.46998 40.5685 9.75561ZM39.5599 12.5404V14.2183H38.6406L38.5424 12.3083V11.6657H38.8102C38.8994 11.6359 38.9887 11.5556 39.0779 11.4247C39.1672 11.2879 39.2594 11.0736 39.3546 10.782C39.4498 10.4905 39.545 10.1007 39.6402 9.6128C39.7117 9.24986 39.7712 8.92261 39.8187 8.63105C39.8663 8.33946 39.9139 8.04492 39.9615 7.7474C40.0151 7.44394 40.0746 7.09585 40.14 6.70312H43.3532V11.6657H44.0405V12.3083L43.9423 14.2183H43.023V12.5404H39.5599ZM46.9414 12.6474C46.5784 12.6474 46.2392 12.5582 45.9239 12.3797C45.6086 12.1953 45.3527 11.9334 45.1563 11.5943C44.9599 11.2491 44.8618 10.8356 44.8618 10.3537C44.8618 9.86571 44.9599 9.45218 45.1563 9.11298C45.3527 8.76785 45.6086 8.50604 45.9239 8.32756C46.2392 8.1431 46.5784 8.05087 46.9414 8.05087C47.3103 8.05087 47.6525 8.1431 47.9678 8.32756C48.2832 8.50604 48.539 8.76785 48.7354 9.11298C48.9317 9.45218 49.03 9.86571 49.03 10.3537C49.03 10.8356 48.9317 11.2491 48.7354 11.5943C48.539 11.9334 48.2832 12.1953 47.9678 12.3797C47.6525 12.5582 47.3103 12.6474 46.9414 12.6474ZM46.9414 11.8085C47.2627 11.8085 47.5156 11.6746 47.7 11.4069C47.8845 11.1391 47.9768 10.788 47.9768 10.3537C47.9768 9.91334 47.8845 9.55931 47.7 9.29148C47.5156 9.02373 47.2627 8.88989 46.9414 8.88989C46.6201 8.88989 46.3672 9.02373 46.1827 9.29148C46.0042 9.55931 45.915 9.91334 45.915 10.3537C45.915 10.788 46.0042 11.1391 46.1827 11.4069C46.3672 11.6746 46.6201 11.8085 46.9414 11.8085ZM52.0541 12.6474C51.6555 12.6474 51.2954 12.5582 50.9741 12.3797C50.6588 12.1953 50.4059 11.9334 50.2155 11.5943C50.031 11.2491 49.9388 10.8356 49.9388 10.3537C49.9388 9.86571 50.0399 9.45218 50.2422 9.11298C50.4446 8.76785 50.7123 8.50604 51.0456 8.32756C51.3847 8.1431 51.7477 8.05087 52.1345 8.05087C52.4141 8.05087 52.6581 8.09848 52.8663 8.19368C53.0746 8.28888 53.2591 8.40492 53.4197 8.5418L52.9199 9.21121C52.8068 9.11001 52.6908 9.03271 52.5718 8.97914C52.4528 8.91964 52.3249 8.88989 52.188 8.88989C51.837 8.88989 51.5484 9.02373 51.3222 9.29148C51.1021 9.55931 50.992 9.91334 50.992 10.3537C50.992 10.788 51.0991 11.1391 51.3133 11.4069C51.5335 11.6746 51.8161 11.8085 52.1612 11.8085C52.3338 11.8085 52.4945 11.7728 52.6432 11.7014C52.7979 11.624 52.9378 11.5348 53.0627 11.4336L53.4822 12.1119C53.2799 12.2904 53.0538 12.4244 52.8039 12.5136C52.554 12.6029 52.3041 12.6474 52.0541 12.6474ZM55.3936 12.5404V8.97017H54.0191V8.15798H57.8035V8.97017H56.429V12.5404H55.3936ZM59.1564 14.3434C59.0374 14.3434 58.9333 14.3344 58.844 14.3166C58.7548 14.2987 58.6685 14.2778 58.5852 14.2541L58.7727 13.4508C58.8143 13.4626 58.8619 13.4746 58.9155 13.4865C58.975 13.5043 59.0315 13.5132 59.085 13.5132C59.3171 13.5132 59.5016 13.4419 59.6384 13.2991C59.7812 13.1622 59.8883 12.9837 59.9597 12.7635L60.04 12.4868L58.3174 8.15798H59.3617L60.1204 10.309C60.1858 10.4994 60.2483 10.7018 60.3078 10.9159C60.3733 11.1242 60.4387 11.3324 60.5042 11.5407H60.5399C60.5934 11.3384 60.647 11.1332 60.7006 10.9248C60.7601 10.7107 60.8166 10.5054 60.8701 10.309L61.5306 8.15798H62.5213L60.9326 12.7367C60.7481 13.2306 60.525 13.6204 60.2632 13.906C60.0014 14.1976 59.6324 14.3434 59.1564 14.3434ZM63.4595 12.5404V8.15798H67.1815V12.5404H66.155V8.97017H64.486V12.5404H63.4595ZM68.6761 12.5404V8.15798H69.7025V9.83596H71.4519V8.15798H72.4783V12.5404H71.4519V10.7374H69.7025V12.5404H68.6761ZM75.7563 12.6474C75.3933 12.6474 75.0542 12.5582 74.7388 12.3797C74.4234 12.1953 74.1676 11.9334 73.9712 11.5943C73.7749 11.2491 73.6766 10.8356 73.6766 10.3537C73.6766 9.86571 73.7749 9.45218 73.9712 9.11298C74.1676 8.76785 74.4234 8.50604 74.7388 8.32756C75.0542 8.1431 75.3933 8.05087 75.7563 8.05087C76.1252 8.05087 76.4678 8.1431 76.7827 8.32756C77.0978 8.50604 77.3542 8.76785 77.5505 9.11298C77.7468 9.45218 77.8449 9.86571 77.8449 10.3537C77.8449 10.8356 77.7468 11.2491 77.5505 11.5943C77.3542 11.9334 77.0978 12.1953 76.7827 12.3797C76.4678 12.5582 76.1252 12.6474 75.7563 12.6474ZM75.7563 11.8085C76.0777 11.8085 76.3305 11.6746 76.5149 11.4069C76.6998 11.1391 76.7919 10.788 76.7919 10.3537C76.7919 9.91334 76.6998 9.55931 76.5149 9.29148C76.3305 9.02373 76.0777 8.88989 75.7563 8.88989C75.435 8.88989 75.1821 9.02373 74.9977 9.29148C74.8192 9.55931 74.7299 9.91334 74.7299 10.3537C74.7299 10.788 74.8192 11.1391 74.9977 11.4069C75.1821 11.6746 75.435 11.8085 75.7563 11.8085ZM81.0048 12.5404V8.15798H82.7807C83.1079 8.15798 83.397 8.19368 83.6466 8.26508C83.9022 8.33648 84.1046 8.45551 84.2537 8.62207C84.4021 8.7887 84.4767 9.01186 84.4767 9.29148C84.4767 9.50574 84.4143 9.69611 84.2895 9.86274C84.17 10.0234 83.9889 10.1394 83.7447 10.2108V10.2465C84.0064 10.306 84.2241 10.4191 84.396 10.5857C84.5687 10.7463 84.6555 10.9784 84.6555 11.2819C84.6555 11.5735 84.5748 11.8144 84.4143 12.0048C84.2598 12.1893 84.0483 12.3261 83.7805 12.4154C83.5126 12.4987 83.2091 12.5404 82.8705 12.5404H81.0048ZM82.013 9.93411H82.6825C82.9686 9.93411 83.1733 9.88656 83.2988 9.79137C83.4236 9.69611 83.486 9.56524 83.486 9.39861C83.486 9.22605 83.4267 9.09221 83.3072 8.99695C83.1885 8.90176 82.9892 8.85413 82.7092 8.85413H82.013V9.93411ZM82.013 11.8442H82.7989C83.0964 11.8442 83.3102 11.7877 83.4411 11.6746C83.5781 11.5615 83.6466 11.4098 83.6466 11.2194C83.6466 11.0409 83.572 10.8981 83.4236 10.791C83.2806 10.6839 83.0607 10.6303 82.7632 10.6303H82.013V11.8442Z" fill="white"/>
<path fill-rule="evenodd" clip-rule="evenodd" d="M9.63283 7.14943L20.8531 18.1435L9.65862 29.1124C9.4439 28.8352 9.31775 28.4437 9.31775 27.9526V8.27809C9.31775 7.80695 9.43386 7.41979 9.63283 7.14943ZM10.0498 6.79141C10.4599 6.59261 11.0046 6.63749 11.606 6.97414L24.6913 14.3008L24.7009 14.2913L24.7522 14.323L21.2442 17.7603L10.0498 6.79141ZM25.2485 14.6033L21.6354 18.1435L25.1919 21.6284L29.1919 19.3833C30.4511 18.6795 30.4511 17.5204 29.1919 16.8166L25.2485 14.6033ZM24.7008 21.9137L21.2442 18.5268L10.0989 29.4474C10.5042 29.6247 11.0332 29.5722 11.6153 29.2463L24.7008 21.9137Z" fill="white"/>
</g>
</g>
</g>
<defs>
<clipPath id="clip0_119_268">
<rect width="121.73" height="35" fill="white" transform="translate(0.333374 0.800049)"/>
</clipPath>
<clipPath id="clip1_119_268">
<rect width="121.73" height="35" fill="white" transform="translate(0.333374 0.800049)"/>
</clipPath>
<clipPath id="clip2_119_268">
<rect width="121.739" height="35" fill="white" transform="translate(0.329468 0.800049)"/>
</clipPath>
</defs>
</svg>
