<svg width="26" height="26" viewBox="0 0 26 26" fill="none" xmlns="http://www.w3.org/2000/svg">
<path d="M12.8334 0.800049C9.44119 0.800049 9.01462 0.815674 7.68181 0.875049C6.349 0.937549 5.44119 1.14692 4.64587 1.4563C3.81126 1.76931 3.05547 2.26161 2.43181 2.89849C1.79493 3.52214 1.30263 4.27793 0.989624 5.11255C0.680249 5.9063 0.469312 6.81567 0.408374 8.1438C0.348999 9.47974 0.333374 9.90474 0.333374 13.3016C0.333374 16.6954 0.348999 17.1204 0.408374 18.4532C0.470874 19.7844 0.680249 20.6922 0.989624 21.4875C1.30994 22.3094 1.7365 23.0063 2.43181 23.7016C3.12556 24.3969 3.82244 24.825 4.64431 25.1438C5.44119 25.4532 6.34744 25.6641 7.67869 25.725C9.01306 25.7844 9.43806 25.8 12.8334 25.8C16.2287 25.8 16.6521 25.7844 17.9865 25.725C19.3162 25.6625 20.2271 25.4532 21.0224 25.1438C21.8565 24.8306 22.6117 24.3383 23.2349 23.7016C23.9302 23.0063 24.3568 22.3094 24.6771 21.4875C24.9849 20.6922 25.1959 19.7844 25.2584 18.4532C25.3177 17.1204 25.3334 16.6954 25.3334 13.3C25.3334 9.90474 25.3177 9.47974 25.2584 8.14536C25.1959 6.81567 24.9849 5.9063 24.6771 5.11255C24.3641 4.27793 23.8718 3.52214 23.2349 2.89849C22.6113 2.26161 21.8555 1.76931 21.0209 1.4563C20.224 1.14692 19.3146 0.935986 17.9849 0.875049C16.6506 0.815674 16.2271 0.800049 12.8302 0.800049H12.8334ZM11.7131 3.05317H12.8349C16.1724 3.05317 16.5677 3.06411 17.8849 3.12505C19.1037 3.17974 19.7662 3.38442 20.2068 3.55474C20.7896 3.7813 21.2068 4.05317 21.6443 4.49067C22.0818 4.92817 22.3521 5.3438 22.5787 5.92817C22.7506 6.36724 22.9537 7.02974 23.0084 8.24849C23.0693 9.56567 23.0818 9.96099 23.0818 13.2969C23.0818 16.6329 23.0693 17.0297 23.0084 18.3469C22.9537 19.5657 22.749 20.2266 22.5787 20.6672C22.3769 21.2093 22.0572 21.6997 21.6427 22.1032C21.2052 22.5407 20.7896 22.811 20.2052 23.0375C19.7677 23.2094 19.1052 23.4125 17.8849 23.4688C16.5677 23.5282 16.1724 23.5422 12.8349 23.5422C9.49744 23.5422 9.10056 23.5282 7.78337 23.4688C6.56462 23.4125 5.90369 23.2094 5.46306 23.0375C4.92061 22.8364 4.42962 22.5172 4.02556 22.1032C3.61036 21.6994 3.29014 21.2084 3.08806 20.6657C2.91775 20.2266 2.71306 19.5641 2.65837 18.3454C2.599 17.0282 2.5865 16.6329 2.5865 13.2938C2.5865 9.95474 2.599 9.56255 2.65837 8.24536C2.71462 7.02661 2.91775 6.36411 3.08962 5.92349C3.31619 5.34067 3.58806 4.92349 4.02556 4.48599C4.46306 4.04849 4.87869 3.77817 5.46306 3.55161C5.90369 3.37974 6.56462 3.17661 7.78337 3.12036C8.9365 3.06724 9.38337 3.05161 11.7131 3.05005V3.05317ZM19.5068 5.12817C19.3098 5.12817 19.1148 5.16697 18.9328 5.24235C18.7508 5.31774 18.5854 5.42823 18.4462 5.56751C18.3069 5.7068 18.1964 5.87216 18.121 6.05415C18.0456 6.23614 18.0068 6.43119 18.0068 6.62817C18.0068 6.82516 18.0456 7.02021 18.121 7.2022C18.1964 7.38419 18.3069 7.54955 18.4462 7.68883C18.5854 7.82812 18.7508 7.93861 18.9328 8.01399C19.1148 8.08938 19.3098 8.12817 19.5068 8.12817C19.9046 8.12817 20.2862 7.97014 20.5675 7.68883C20.8488 7.40753 21.0068 7.026 21.0068 6.62817C21.0068 6.23035 20.8488 5.84882 20.5675 5.56751C20.2862 5.28621 19.9046 5.12817 19.5068 5.12817ZM12.8349 6.8813C11.9835 6.86801 11.1379 7.02424 10.3474 7.34089C9.55691 7.65754 8.8373 8.12828 8.23048 8.72571C7.62366 9.32314 7.14176 10.0353 6.81281 10.8208C6.48387 11.6062 6.31447 12.4493 6.31447 13.3008C6.31447 14.1524 6.48387 14.9954 6.81281 15.7809C7.14176 16.5664 7.62366 17.2785 8.23048 17.8759C8.8373 18.4734 9.55691 18.9441 10.3474 19.2608C11.1379 19.5774 11.9835 19.7336 12.8349 19.7204C14.5202 19.6941 16.1275 19.0062 17.3099 17.8051C18.4923 16.6041 19.1551 14.9863 19.1551 13.3008C19.1551 11.6154 18.4923 9.99757 17.3099 8.79653C16.1275 7.5955 14.5202 6.90759 12.8349 6.8813ZM12.8349 9.13286C13.3822 9.13286 13.9241 9.24065 14.4297 9.45007C14.9352 9.65949 15.3946 9.96644 15.7816 10.3534C16.1685 10.7404 16.4755 11.1997 16.6849 11.7053C16.8943 12.2109 17.0021 12.7528 17.0021 13.3C17.0021 13.8473 16.8943 14.3892 16.6849 14.8948C16.4755 15.4003 16.1685 15.8597 15.7816 16.2467C15.3946 16.6337 14.9352 16.9406 14.4297 17.15C13.9241 17.3594 13.3822 17.4672 12.8349 17.4672C11.7297 17.4672 10.6698 17.0282 9.88829 16.2467C9.10679 15.4652 8.66775 14.4053 8.66775 13.3C8.66775 12.1948 9.10679 11.1349 9.88829 10.3534C10.6698 9.5719 11.7297 9.13286 12.8349 9.13286Z" fill="#D1D5DB"/>
</svg>
