<svg width="20" height="21" viewBox="0 0 20 21" fill="none" xmlns="http://www.w3.org/2000/svg">
<path d="M9.22922 20.3965C3.55352 12.1684 2.5 11.324 2.5 8.30005C2.5 4.1579 5.85785 0.800049 10 0.800049C14.1421 0.800049 17.5 4.1579 17.5 8.30005C17.5 11.324 16.4465 12.1684 10.7708 20.3965C10.3983 20.9346 9.60164 20.9345 9.22922 20.3965ZM10 11.425C11.7259 11.425 13.125 10.0259 13.125 8.30005C13.125 6.57415 11.7259 5.17505 10 5.17505C8.2741 5.17505 6.875 6.57415 6.875 8.30005C6.875 10.0259 8.2741 11.425 10 11.425Z" fill="white"/>
</svg>
