<svg width="24" height="25" viewBox="0 0 24 25" fill="none" xmlns="http://www.w3.org/2000/svg">
<g clip-path="url(#clip0_106_85)">
<path fill-rule="evenodd" clip-rule="evenodd" d="M12 24.4429C18.6274 24.4429 24 19.0703 24 12.4429C24 5.81545 18.6274 0.442871 12 0.442871C5.37258 0.442871 0 5.81545 0 12.4429C0 19.0703 5.37258 24.4429 12 24.4429ZM10.7333 6.38715C11.3745 6.1216 12.0616 5.98491 12.7556 5.98491C14.1565 5.98616 15.4997 6.54371 16.4897 7.53498L15.3915 8.63326C14.6926 7.93354 13.7445 7.53998 12.7556 7.53911C11.7663 7.53911 10.8175 7.93212 10.118 8.63163C9.41848 9.33114 9.0255 10.2799 9.0255 11.2692C9.0255 12.2584 9.41848 13.2072 10.118 13.9067C10.8175 14.6063 11.7663 14.9992 12.7556 14.9992C13.7445 14.9984 14.6926 14.6048 15.3915 13.9051L16.4897 15.0034C15.4997 15.9946 14.1565 16.5522 12.7556 16.5534C12.0616 16.5534 11.3745 16.4167 10.7333 16.1512C10.0922 15.8856 9.50972 15.4964 9.01903 15.0057C8.52835 14.515 8.13913 13.9325 7.87354 13.2913C7.60796 12.6502 7.4713 11.9631 7.4713 11.2692C7.4713 10.5753 7.60796 9.8881 7.87354 9.24699C8.13913 8.60588 8.52835 8.02332 9.01903 7.53264C9.50972 7.04195 10.0922 6.65274 10.7333 6.38715ZM7.4713 18.8847V17.3305H16.4897V18.8847H7.4713Z" fill="#FFC32A"/>
</g>
<defs>
<clipPath id="clip0_106_85">
<rect width="24" height="24" fill="white" transform="translate(0 0.442871)"/>
</clipPath>
</defs>
</svg>
