<svg width="54" height="24" viewBox="0 0 54 24" fill="none" xmlns="http://www.w3.org/2000/svg">
<g clip-path="url(#clip0_119_315)">
<g clip-path="url(#clip1_119_315)">
<g clip-path="url(#clip2_119_315)">
<path d="M33.2861 0.800049H53.5438V19.5291H41.0813L42.1692 17.6415L36.6153 23.1901V19.5291H33.2916V0.800049H33.2861ZM50.3289 12.5608L50.5301 4.82002H48.5501L48.7513 12.5608H50.3289ZM48.6262 15.5091H50.454V13.6868H48.6262V15.5091ZM36.4793 10.1673C36.4793 12.898 38.2853 15.6342 41.8646 15.6451C45.4385 15.6451 47.2064 12.9035 47.2064 10.1673C47.2064 7.4311 45.4331 4.68947 41.8429 4.68947C38.2853 4.70035 36.4793 7.4311 36.4793 10.1673ZM41.8864 6.48458H41.9081C44.1602 6.48458 45.2699 8.29602 45.2699 10.102C45.2699 11.908 44.1602 13.7194 41.9081 13.7194H41.8864C39.6506 13.7086 38.4974 11.9026 38.4974 10.102C38.4974 8.30146 39.6452 6.49546 41.8864 6.48458Z" fill="#E6007E"/>
<path d="M2.46547 4.7981L5.55525 13.0067L8.63415 4.7981H11.044V15.509H9.189V11.9786L9.37395 7.25686L6.21346 15.509H4.88072L1.72567 7.2623L1.91062 11.9786V15.509H0.0556641V4.7981H2.46547Z" fill="white"/>
<path d="M12.7354 11.4564C12.7354 10.6785 12.8877 9.97681 13.1977 9.35124C13.5078 8.72567 13.9375 8.24697 14.4978 7.9097C15.0581 7.57244 15.7 7.40381 16.4235 7.40381C17.4951 7.40381 18.3709 7.75195 19.04 8.4428C19.7091 9.13365 20.0736 10.0475 20.128 11.1899L20.1334 11.6087C20.1334 12.3921 19.9811 13.0938 19.6819 13.7139C19.3827 14.334 18.9475 14.8073 18.3872 15.15C17.827 15.4873 17.1796 15.6559 16.4398 15.6559C15.3192 15.6559 14.4162 15.2806 13.7471 14.5353C13.0726 13.7901 12.7354 12.7892 12.7354 11.5435V11.4564ZM14.5196 11.6087C14.5196 12.4301 14.6882 13.0666 15.0255 13.5344C15.3627 13.9968 15.836 14.2307 16.4398 14.2307C17.0436 14.2307 17.5114 13.9968 17.8487 13.5235C18.186 13.0503 18.3546 12.3649 18.3546 11.4564C18.3546 10.6513 18.1805 10.0149 17.8378 9.54163C17.4897 9.06837 17.0219 8.83446 16.4289 8.83446C15.8469 8.83446 15.3791 9.06837 15.0364 9.53075C14.6937 9.99857 14.5196 10.6894 14.5196 11.6087Z" fill="white"/>
<path d="M26.6116 7.55072H28.3904V15.5091H26.6116V10.1999L23.4946 15.5091H21.7158V7.55072H23.4946V12.8599L26.6116 7.55072ZM27.4493 4.49902C27.4493 5.11915 27.2317 5.61961 26.802 6.00039C26.3722 6.38118 25.7956 6.57157 25.0721 6.57157C24.3541 6.57157 23.7775 6.38118 23.3423 6.00039C22.9071 5.61961 22.7004 5.11371 22.7004 4.49902H24.0386C24.0386 4.81997 24.1311 5.06476 24.316 5.24427C24.501 5.41834 24.7512 5.51082 25.0776 5.51082C25.3985 5.51082 25.6542 5.42378 25.8337 5.24427C26.0132 5.0702 26.1057 4.81997 26.1057 4.49902H27.4493Z" fill="white"/>
</g>
</g>
</g>
<defs>
<clipPath id="clip0_119_315">
<rect width="53.48" height="22.39" fill="white" transform="translate(0.0595703 0.800049)"/>
</clipPath>
<clipPath id="clip1_119_315">
<rect width="53.48" height="22.39" fill="white" transform="translate(0.0595703 0.800049)"/>
</clipPath>
<clipPath id="clip2_119_315">
<rect width="53.489" height="22.39" fill="white" transform="translate(0.0556641 0.800049)"/>
</clipPath>
</defs>
</svg>
