<svg width="32" height="32" viewBox="0 0 32 32" fill="none" xmlns="http://www.w3.org/2000/svg">
<g filter="url(#filter0_i_11_874)">
<rect width="32" height="32" rx="6" fill="#FFF9E4" fill-opacity="0.8"/>
<path d="M16.9844 9C13.125 9 10 12.1344 10 16C10 19.8656 13.125 23 16.9844 23C18.8781 23 20.5938 22.2438 21.8531 21.0188C22.0094 20.8656 22.05 20.6281 21.95 20.4344C21.85 20.2406 21.6344 20.1312 21.4187 20.1687C21.1125 20.2219 20.8 20.25 20.4781 20.25C17.45 20.25 14.9938 17.7875 14.9938 14.75C14.9938 12.6937 16.1188 10.9031 17.7844 9.95938C17.975 9.85 18.0719 9.63125 18.025 9.41875C17.9781 9.20625 17.7969 9.04688 17.5781 9.02813C17.3812 9.0125 17.1844 9.00312 16.9844 9.00312V9Z" fill="#FFC32A"/>
</g>
<defs>
<filter id="filter0_i_11_874" x="0" y="0" width="32" height="32" filterUnits="userSpaceOnUse" color-interpolation-filters="sRGB">
<feFlood flood-opacity="0" result="BackgroundImageFix"/>
<feBlend mode="normal" in="SourceGraphic" in2="BackgroundImageFix" result="shape"/>
<feColorMatrix in="SourceAlpha" type="matrix" values="0 0 0 0 0 0 0 0 0 0 0 0 0 0 0 0 0 0 127 0" result="hardAlpha"/>
<feMorphology radius="1" operator="erode" in="SourceAlpha" result="effect1_innerShadow_11_874"/>
<feOffset/>
<feComposite in2="hardAlpha" operator="arithmetic" k2="-1" k3="1"/>
<feColorMatrix type="matrix" values="0 0 0 0 0.870588 0 0 0 0 0.592157 0 0 0 0 0 0 0 0 0.596 0"/>
<feBlend mode="normal" in2="shape" result="effect1_innerShadow_11_874"/>
</filter>
</defs>
</svg>
