<svg width="17" height="16" viewBox="0 0 17 16" fill="none" xmlns="http://www.w3.org/2000/svg">
<path d="M2.03015 4.5C2.03015 10.0227 6.50748 14.5 12.0302 14.5H13.5302C13.928 14.5 14.3095 14.342 14.5908 14.0607C14.8721 13.7794 15.0302 13.3978 15.0302 13V12.0853C15.0302 11.7413 14.7962 11.4413 14.4622 11.358L11.5135 10.6207C11.2202 10.5473 10.9122 10.6573 10.7315 10.8987L10.0848 11.7607C9.89682 12.0113 9.57215 12.122 9.27815 12.014C8.18674 11.6128 7.19559 10.9791 6.37334 10.1568C5.55109 9.33456 4.9174 8.34341 4.51615 7.252C4.40815 6.958 4.51882 6.63333 4.76948 6.44533L5.63148 5.79867C5.87348 5.618 5.98282 5.30933 5.90948 5.01667L5.17215 2.068C5.13158 1.9058 5.03797 1.7618 4.90619 1.65889C4.77441 1.55598 4.61202 1.50006 4.44482 1.5H3.53015C3.13233 1.5 2.7508 1.65804 2.46949 1.93934C2.18819 2.22064 2.03015 2.60218 2.03015 3V4.5Z" stroke="#21201C" stroke-linecap="round" stroke-linejoin="round"/>
</svg>
