<svg width="40" height="40" viewBox="0 0 40 40" fill="none" xmlns="http://www.w3.org/2000/svg">
<rect width="40" height="40" rx="4" fill="#F1F0EF"/>
<path d="M28.3231 12.8H22.9231C22.5523 12.8 22.033 13.0151 21.7711 13.277L15.076 19.9721C14.8132 20.2349 14.8132 20.6642 15.076 20.927L20.8711 26.7221C21.1339 26.9849 21.5632 26.9849 21.826 26.7221L28.5211 20.027C28.7839 19.7642 28.9981 19.2458 28.9981 18.875V13.475C28.9981 13.1042 28.6948 12.8 28.3231 12.8ZM24.9481 18.2C24.2029 18.2 23.5981 17.5952 23.5981 16.85C23.5981 16.1048 24.2029 15.5 24.9481 15.5C25.6933 15.5 26.2981 16.1048 26.2981 16.85C26.2981 17.5952 25.6933 18.2 24.9481 18.2Z" fill="#FBBF23"/>
<path d="M12.8005 20.45L20.4504 12.8H19.3254C18.9546 12.8 18.4354 13.0151 18.1735 13.277L11.4783 19.9721C11.2155 20.2349 11.2155 20.6642 11.4783 20.927L17.2735 26.7221C17.5363 26.9849 17.9656 26.9849 18.2284 26.7221L18.6514 26.2991L12.8013 20.4491L12.8005 20.45Z" fill="#FBBF23"/>
</svg>
