<svg width="32" height="32" viewBox="0 0 32 32" fill="none" xmlns="http://www.w3.org/2000/svg">
<g filter="url(#filter0_i_11_871)">
<rect width="32" height="32" rx="6" fill="#FFF9E4" fill-opacity="0.8"/>
<path d="M18.45 17.3125C17.6652 17.3125 17.2879 17.75 16 17.75C14.7121 17.75 14.3375 17.3125 13.55 17.3125C11.5211 17.3125 9.875 18.9586 9.875 20.9875V21.6875C9.875 22.4121 10.4629 23 11.1875 23H20.8125C21.5371 23 22.125 22.4121 22.125 21.6875V20.9875C22.125 18.9586 20.4789 17.3125 18.45 17.3125ZM20.8125 21.6875H11.1875V20.9875C11.1875 19.6859 12.2484 18.625 13.55 18.625C13.9492 18.625 14.5973 19.0625 16 19.0625C17.4137 19.0625 18.048 18.625 18.45 18.625C19.7516 18.625 20.8125 19.6859 20.8125 20.9875V21.6875ZM16 16.875C18.1738 16.875 19.9375 15.1113 19.9375 12.9375C19.9375 10.7637 18.1738 9 16 9C13.8262 9 12.0625 10.7637 12.0625 12.9375C12.0625 15.1113 13.8262 16.875 16 16.875ZM16 10.3125C17.4465 10.3125 18.625 11.491 18.625 12.9375C18.625 14.384 17.4465 15.5625 16 15.5625C14.5535 15.5625 13.375 14.384 13.375 12.9375C13.375 11.491 14.5535 10.3125 16 10.3125Z" fill="#FFC32A"/>
</g>
<defs>
<filter id="filter0_i_11_871" x="0" y="0" width="32" height="32" filterUnits="userSpaceOnUse" color-interpolation-filters="sRGB">
<feFlood flood-opacity="0" result="BackgroundImageFix"/>
<feBlend mode="normal" in="SourceGraphic" in2="BackgroundImageFix" result="shape"/>
<feColorMatrix in="SourceAlpha" type="matrix" values="0 0 0 0 0 0 0 0 0 0 0 0 0 0 0 0 0 0 127 0" result="hardAlpha"/>
<feMorphology radius="1" operator="erode" in="SourceAlpha" result="effect1_innerShadow_11_871"/>
<feOffset/>
<feComposite in2="hardAlpha" operator="arithmetic" k2="-1" k3="1"/>
<feColorMatrix type="matrix" values="0 0 0 0 0.870588 0 0 0 0 0.592157 0 0 0 0 0 0 0 0 0.596 0"/>
<feBlend mode="normal" in2="shape" result="effect1_innerShadow_11_871"/>
</filter>
</defs>
</svg>
