<svg width="20" height="21" viewBox="0 0 20 21" fill="none" xmlns="http://www.w3.org/2000/svg">
<path d="M9.58333 2.4668C5.675 2.4668 2.5 5.6418 2.5 9.55013C2.5 13.4585 5.675 16.6335 9.58333 16.6335H10V19.1335C14.05 17.1835 16.6667 13.3001 16.6667 9.55013C16.6667 5.6418 13.4917 2.4668 9.58333 2.4668ZM10.4167 14.5501H8.75V12.8835H10.4167V14.5501ZM10.4167 11.6335H8.75C8.75 8.92513 11.25 9.13346 11.25 7.4668C11.25 6.55013 10.5 5.80013 9.58333 5.80013C8.66667 5.80013 7.91667 6.55013 7.91667 7.4668H6.25C6.25 5.62513 7.74167 4.13346 9.58333 4.13346C11.425 4.13346 12.9167 5.62513 12.9167 7.4668C12.9167 9.55013 10.4167 9.75846 10.4167 11.6335Z" fill="white"/>
</svg>
