<svg width="26" height="26" viewBox="0 0 26 26" fill="none" xmlns="http://www.w3.org/2000/svg">
<path d="M25.3334 13.3C25.3334 16.6153 24.0164 19.7947 21.6722 22.1389C19.328 24.4831 16.1486 25.8 12.8334 25.8C9.51817 25.8 6.33874 24.4831 3.99454 22.1389C1.65033 19.7947 0.333374 16.6153 0.333374 13.3C0.333374 9.98484 1.65033 6.80542 3.99454 4.46121C6.33874 2.11701 9.51817 0.800049 12.8334 0.800049C16.1486 0.800049 19.328 2.11701 21.6722 4.46121C24.0164 6.80542 25.3334 9.98484 25.3334 13.3ZM13.2818 10.0282C12.0651 10.5344 9.63494 11.5813 5.99119 13.1688C5.40056 13.4032 5.09067 13.6334 5.0615 13.8594C5.01462 14.2391 5.49119 14.3891 6.13962 14.5938L6.41306 14.6797C7.05056 14.8875 7.90994 15.1297 8.35525 15.1391C8.7615 15.1495 9.21358 14.9829 9.7115 14.6391C13.1167 12.3412 14.874 11.1797 14.9834 11.1547C15.0615 11.136 15.1709 11.1141 15.2427 11.1797C15.3146 11.2454 15.3084 11.3672 15.3006 11.4C15.2537 11.6016 13.3834 13.3391 12.4162 14.2391C12.1146 14.5204 11.9006 14.7188 11.8568 14.7641C11.7605 14.8626 11.6626 14.9595 11.5631 15.0547C10.9693 15.6266 10.5256 16.0547 11.5865 16.7547C12.0974 17.0922 12.5068 17.3688 12.9146 17.6469C13.3584 17.95 13.8021 18.2516 14.3771 18.6297C14.523 18.7256 14.6636 18.823 14.799 18.9219C15.3162 19.2907 15.7834 19.6219 16.3568 19.5688C16.6912 19.5375 17.0365 19.225 17.2115 18.2875C17.6256 16.0735 18.4396 11.2782 18.6271 9.30161C18.6389 9.13731 18.6321 8.9722 18.6068 8.80942C18.5917 8.67819 18.5282 8.5573 18.4287 8.47036C18.2863 8.3726 18.117 8.3218 17.9443 8.32505C17.4756 8.33286 16.7521 8.58442 13.2818 10.0282Z" fill="#D1D5DB"/>
</svg>
